<svg id="图层_1" data-name="图层 1" xmlns="http://www.w3.org/2000/svg" viewBox="0 0 308 106"><defs><style>.cls-1{fill:#fff;}</style></defs><title>优君电商透明</title><path class="cls-1" d="M95.38,21.7c0-.13,0-.23,0-.33,0-1.31,0-2.63,0-3.94a.71.71,0,0,0-.06-.2,1.87,1.87,0,0,0-.34-.08c-.21,0-.42,0-.63,0H84.76a1.81,1.81,0,0,1-.73-.06,1,1,0,0,1-.1-.68V9.59c0-.25.1-.33.35-.35h.5q25.55,0,51.1,0a8.22,8.22,0,0,1,7.86,5.4,8.12,8.12,0,0,1,.61,2.79c0,1.08,0,2.16,0,3.25,0,.2,0,.41,0,.62,0,.44.09.52.52.53h1.37a1,1,0,0,1,.65.11,2.13,2.13,0,0,1,.06.39v5.06a4.32,4.32,0,0,1-.06.45c-.8.13-1.59,0-2.41.1a2.25,2.25,0,0,0-.12.4c0,.23,0,.46,0,.69V39.45c0,.27,0,.53,0,.82a1.65,1.65,0,0,1-.39.09c-.2,0-.41,0-.62,0H102.85l-1,0c-.58,1-1.06,2-1.57,3,0,.11-.08.23-.13.38a1.18,1.18,0,0,0,.31.08c.23,0,.46,0,.69,0h42.86a.3.3,0,0,1,.31.32c0,.16,0,.33,0,.5V58.8a9.55,9.55,0,0,1-.54,3.43,8.45,8.45,0,0,1-4.28,4.83,6.7,6.7,0,0,1-2.88.72H91.44a2.66,2.66,0,0,1-1-.08,4.28,4.28,0,0,1,0-.49c0-.85,0-1.7,0-2.56V57.28c0-.21,0-.42,0-.62a.28.28,0,0,0-.25-.25c-.21,0-.41,0-.62,0H82.42a1.38,1.38,0,0,1-.63-.06,1.59,1.59,0,0,1,.29-.63q1.71-3.12,3.44-6.23l4.63-8.36a1.45,1.45,0,0,0,.26-.6c-.14-.19-.32-.14-.47-.14H84.19a.28.28,0,0,1-.25-.25c0-.12,0-.24,0-.37V33.06c0-.17,0-.33,0-.52a1.92,1.92,0,0,1,.38-.07H94.87c.16-.28.33-.55.48-.82a.73.73,0,0,0,.07-.3V28.27a.49.49,0,0,0,0-.12.27.27,0,0,0-.25-.24c-.23,0-.46,0-.69,0H82.54a1.93,1.93,0,0,1-.78-.07,2.38,2.38,0,0,1-.07-.4c0-1.71,0-3.41,0-5.12a2.38,2.38,0,0,1,.07-.4,1.85,1.85,0,0,1,.83-.08H94.46A1.88,1.88,0,0,0,95.38,21.7Zm22.08,30H101.4c-.74,0-.78,0-.78.78v6.74a2.42,2.42,0,0,0,0,.38.35.35,0,0,0,.35.36h30.3a5.19,5.19,0,0,0,.56,0,2.43,2.43,0,0,0,2.33-2,3.09,3.09,0,0,0,.09-.68c0-1.64,0-3.29,0-4.93,0-.1,0-.21,0-.31s-.11-.31-.31-.33-.46,0-.69,0ZM105.79,17.17a1.13,1.13,0,0,0-.17.74V21a2.3,2.3,0,0,0,0,.37c0,.28.11.38.38.4s.42,0,.63,0H133.3a5.19,5.19,0,0,0,.56,0,1.59,1.59,0,0,0,.33-.1,8.62,8.62,0,0,0,0-2.69,2.41,2.41,0,0,0-1.93-1.83,3.18,3.18,0,0,0-.62,0H106.39C106.19,17.14,106,17.16,105.79,17.17Zm0,15.28h27.58c.2,0,.41,0,.62,0a.26.26,0,0,0,.25-.24,2.23,2.23,0,0,0,0-.37V28.52a2.3,2.3,0,0,0,0-.37.29.29,0,0,0-.25-.24c-.25,0-.5,0-.75,0h-27c-.6,0-.64.05-.66.63v3.25A1,1,0,0,0,105.8,32.45Z"/><path class="cls-1" d="M222.28,60.44a4,4,0,0,1-.2.49l-3.27,6.47s0,0,0,0a.57.57,0,0,1-.67.43,1.61,1.61,0,0,0-.31,0H192.25a8.12,8.12,0,0,1-1.3-.09,6.12,6.12,0,0,1-3.57-1.9,8,8,0,0,1-2.21-4.52,7,7,0,0,1,0-1.12c0-1.5,0-3,0-4.5,0-.79,0-.82-.79-.82-1.88,0-3.75,0-5.63,0H159.52l-.75,0a.29.29,0,0,1-.28-.28c0-.21,0-.42,0-.62V14.75c0-.25,0-.5,0-.75a.3.3,0,0,1,.32-.31c.25,0,.5,0,.75,0H184l.81,0c.2,0,.29-.12.31-.33a4.17,4.17,0,0,0,0-.5c0-.94,0-1.87,0-2.81,0-.23,0-.45,0-.7a2.15,2.15,0,0,1,.38-.1,3.09,3.09,0,0,1,.43,0h8.31l.64,0a.73.73,0,0,1,.16.63c0,1,0,2,0,3,0,.23,0,.45,0,.7a2.17,2.17,0,0,0,.44.11c.25,0,.5,0,.75,0h23.62a2.05,2.05,0,0,1,.94.1c0,.11,0,.23.06.35s0,.29,0,.44V47.11a8.32,8.32,0,0,1-.26,2.28,7.28,7.28,0,0,1-4.21,5,5.54,5.54,0,0,1-2.12.47l-1.06,0H196.22c-.25,0-.5,0-.75,0s-.36.12-.39.39c0,.1,0,.21,0,.31,0,.67,0,1.34,0,2a3.7,3.7,0,0,0,.14,1,2.28,2.28,0,0,0,1.92,1.73,6.63,6.63,0,0,0,1,.07h23.3ZM167.64,47.17c.23,0,.41,0,.6,0h16.17l.43,0a.27.27,0,0,0,.25-.24,4.36,4.36,0,0,0,0-.62c0-2.48,0-5,0-7.43,0-.15,0-.3,0-.44A3.29,3.29,0,0,0,185,38l-.83,0H167.94a1.35,1.35,0,0,0-.29.05c0,.09-.08.14-.08.2,0,2.87,0,5.74,0,8.61A1.35,1.35,0,0,0,167.64,47.17Zm0-17.08a1.15,1.15,0,0,0,.71.11h16c.79,0,.8,0,.8-.81,0-2.37,0-4.74,0-7.11a3.23,3.23,0,0,0,0-.44c0-.27-.1-.35-.39-.38s-.46,0-.69,0H168.49a1.66,1.66,0,0,0-.89.12c0,.14,0,.3,0,.46C167.49,25.47,167.52,29.55,167.63,30.09ZM210.57,38,210,38H195.77c-.68,0-.69,0-.69.71q0,3.9,0,7.81a3.1,3.1,0,0,0,0,.43.27.27,0,0,0,.25.24c.21,0,.42,0,.63,0h7.87c1.46,0,2.92,0,4.37,0a2.43,2.43,0,0,0,2.38-1.85,3.65,3.65,0,0,0,.13-.92c0-1.94,0-3.88,0-5.81A.83.83,0,0,0,210.57,38ZM195.16,21.56a1.71,1.71,0,0,0-.09.7v7.11a4.1,4.1,0,0,0,0,.5c0,.2.12.29.33.31a4.1,4.1,0,0,0,.5,0h14.41c.27,0,.36-.12.39-.4a4,4,0,0,0,0-.49c0-2.33,0-4.67,0-7a3.09,3.09,0,0,0,0-.43,2.54,2.54,0,0,0-.11-.38c-.24,0-.47,0-.69,0h-14c-.16,0-.33,0-.49,0A1.15,1.15,0,0,0,195.16,21.56Z"/><path class="cls-1" d="M258.33,21l.35.65,1.14,2.29.24.44a.41.41,0,0,0,.35.22h17.93c.73,0,.7,0,1.06-.63s.85-1.58,1.28-2.36c.11-.2.23-.39.33-.56.55-.07,10.32-.08,10.91,0,.12.15,0,.27-.06.39-.4.73-.8,1.46-1.19,2.2-.11.2-.22.4-.32.61a1.3,1.3,0,0,0,0,.26,1.49,1.49,0,0,0,.31.09h5.56a5.56,5.56,0,0,1,4.13,1.76,6.88,6.88,0,0,1,1.89,3.45,5.46,5.46,0,0,1,.08.68c0,.48,0,1,0,1.44V58.52c0,.5,0,1,0,1.5a5.55,5.55,0,0,1-.25,1.72,8.83,8.83,0,0,1-4.54,5.54,6.23,6.23,0,0,1-2,.59,14.67,14.67,0,0,1-2,.12h-7.37c-.22,0-.46.07-.64-.12.14-.57,1.56-4.11,2.56-6.37a3.41,3.41,0,0,1,.22-.41c.39,0,.79,0,1.18,0a2.48,2.48,0,0,0,2.19-1.1,2.12,2.12,0,0,0,.45-1.08c0-.33.06-.66.06-1V35a6.73,6.73,0,0,0-.07-1,2.17,2.17,0,0,0-2-1.93,5.42,5.42,0,0,0-.57,0H248l-.69,0a.32.32,0,0,0-.29.28,1.63,1.63,0,0,0,0,.31V67c0,.29,0,.58,0,.88l-.38.1h-9.06c-.75,0-.73,0-.73-.73v-42a1.2,1.2,0,0,1,.08-.62,1.28,1.28,0,0,1,.67-.08h10.43a1.23,1.23,0,0,0,.73-.1.7.7,0,0,0-.16-.53l-1.33-2.48a3.14,3.14,0,0,1-.18-.37c.11-.19.27-.13.4-.13h10.93Z"/><path class="cls-1" d="M42.26,26.52a2.59,2.59,0,0,0-.09.4c0,.25,0,.5,0,.75V55.42a2,2,0,0,1-.23,1l-4.23,9c-.29.62-.58,1.24-.88,1.86-.09.19-.19.36-.29.56-.73.08-1.44,0-2.14,0s-1.46,0-2.19,0H27.89c-.7,0-1.41,0-2.16,0a1.35,1.35,0,0,1,.05-.33c.2-.45.42-.9.63-1.36l5.41-11.46a2.22,2.22,0,0,0,.24-1q0-13.24,0-26.49c0-.78,0-.79-.82-.79H26a1.58,1.58,0,0,1-.76-.09c0-.12,0-.24,0-.36q0-3.32,0-6.62a3.27,3.27,0,0,1,0-.35c.19-.19.41-.14.61-.14h5.56c.19,0,.37,0,.57,0a2.53,2.53,0,0,0,.09-.38c0-.19,0-.38,0-.57V10.05c0-.18,0-.37,0-.56a.26.26,0,0,1,.24-.24,3.23,3.23,0,0,1,.44,0h8.68c.71,0,.73,0,.73.74,0,2.62,0,5.25,0,7.87a1.91,1.91,0,0,0,.11.94,1.57,1.57,0,0,0,.3.05H56.32a.58.58,0,0,0,.17-.06.89.89,0,0,0-.13-.66c-.37-1-.74-2-1.12-3l-1.92-5.08c-.09-.23-.16-.47-.25-.75a1.89,1.89,0,0,1,.35-.1,4.21,4.21,0,0,1,.5,0h9.19l.7,0c.26.16.29.41.37.61q1.65,4.35,3.28,8.71c.89,2.35,1.77,4.71,2.66,7.06l.25.67a.82.82,0,0,1-.3.13c-.25,0-.5,0-.75,0H43.2A1.93,1.93,0,0,0,42.26,26.52Z"/><path class="cls-1" d="M250.56,44.88c.15,0,.27,0,.39,0h37.62a2.84,2.84,0,0,1,.11.37,3.23,3.23,0,0,1,0,.44v9.62a8.62,8.62,0,0,1-.27,2.53,9.62,9.62,0,0,1-2.7,4.49,7.73,7.73,0,0,1-4.93,2c-.25,0-.5,0-.75,0H251.5a2.44,2.44,0,0,1-1-.08c0-.12-.07-.23-.08-.35s0-.38,0-.56q0-8.74,0-17.49A2,2,0,0,1,250.56,44.88Zm9.17,12.5a2,2,0,0,0,.83.08H277a2.13,2.13,0,0,0,1.33-.46,2.43,2.43,0,0,0,1-2c0-1.06,0-2.12,0-3.18a2.5,2.5,0,0,0-.05-.29,1.71,1.71,0,0,0-.94-.12H260.66a5.24,5.24,0,0,0-.56,0,2.83,2.83,0,0,0-.37.09c0,.14-.05.26-.06.38C259.62,53.22,259.66,56.84,259.73,57.38Z"/><path class="cls-1" d="M13.73,9.39c.67-.07,9.23-.06,9.76,0,.09.19,0,.35-.09.52-.57,1.52-1.13,3-1.71,4.56q-1.44,3.85-2.9,7.71a1.32,1.32,0,0,0-.18.71.53.53,0,0,0,.46.14h1.44a3.1,3.1,0,0,1,.43,0,.89.89,0,0,1,.19.07,1.57,1.57,0,0,1,.08.29c0,.17,0,.33,0,.5q0,21.55,0,43.1a1.3,1.3,0,0,1-.09.78c-.51.11-5,.15-8.74.08l-.51,0a3.21,3.21,0,0,1,0-.39c0-.21,0-.42,0-.63q0-17.3,0-34.6a2.34,2.34,0,0,0-.06-.87,1.23,1.23,0,0,0-.68-.09H6.26l-.58,0c-.16-.25,0-.41.05-.58q.81-2.19,1.64-4.38l6.07-16.18C13.53,9.86,13.63,9.63,13.73,9.39Z"/><path class="cls-1" d="M263.07,11.27c-.12-.75-.45-1.39-.6-2.12a3.33,3.33,0,0,1,.38-.05H273.1l.44,0c.37.69.45,1.48.83,2.18a3.89,3.89,0,0,0,.49,0h26.55a1.67,1.67,0,0,1,.82.08,2,2,0,0,1,.06.35v6.75a3,3,0,0,1,0,.39,2.61,2.61,0,0,1-.36.08H237.73a2.48,2.48,0,0,1-.86-.05,1,1,0,0,1-.1-.68q0-3,0-6.06c0-.24,0-.49,0-.76a2.4,2.4,0,0,1,.38-.1h25A2.2,2.2,0,0,0,263.07,11.27Z"/><path class="cls-1" d="M51.05,31.79l.38-.07c1.15,0,9.1,0,9.59.06a1.5,1.5,0,0,1,.09.32c0,.23,0,.46,0,.69q0,12,0,24A8.52,8.52,0,0,0,61.22,58a2.39,2.39,0,0,0,2.33,2c2.13,0,4.25,0,6.37,0h.5a2.31,2.31,0,0,1,.28.1c-.13.59-1.58,4.24-2.91,7.33-.07.15-.15.29-.24.45l-.7,0c-2.54,0-5.08,0-7.62,0a7.57,7.57,0,0,1-6-2.78,8.94,8.94,0,0,1-2.05-4.41A11.82,11.82,0,0,1,51,58.82V32.65C51,32.38,51.05,32.11,51.05,31.79Z"/><path class="cls-1" d="M120.69,96.42a25.12,25.12,0,0,1-4,0c-.13-.22-.27-.47-.4-.72q-2.82-5.51-5.62-11c-.1-.18-.2-.37-.31-.54s-.09-.06-.18-.1a.91.91,0,0,0-.08.23c0,.23,0,.46,0,.69,0,3.56,0,7.12,0,10.68a1.82,1.82,0,0,1-.07.76,2.69,2.69,0,0,1-1,.07h-.94a3.5,3.5,0,0,1-1-.06.8.8,0,0,1-.07-.2q0-8.28,0-16.55a.8.8,0,0,1,.07-.2,3.91,3.91,0,0,1,.48,0c1,0,2.08,0,3.12,0a.74.74,0,0,1,.75.5c1.28,2.64,2.57,5.27,3.86,7.91.61,1.25,1.22,2.5,1.84,3.75.09.18.13.4.33.48s.14-.13.14-.2,0-.42,0-.63V80.31c0-.24,0-.49,0-.75.11,0,.18-.1.25-.1h2.56a.51.51,0,0,1,.15.06,2.72,2.72,0,0,1,.07.33c0,.15,0,.29,0,.44V95.65C120.7,95.9,120.69,96.14,120.69,96.42Z"/><path class="cls-1" d="M186.94,84.1c0,.06-.08.13-.08.2s0,.42,0,.63V95.61a2.25,2.25,0,0,1-.07.81.79.79,0,0,1-.23.08c-.79,0-1.58,0-2.38,0-.28,0-.35-.08-.37-.38,0-.14,0-.29,0-.43V80.26c0-.19,0-.38,0-.56a.25.25,0,0,1,.25-.24l.25,0h3.37l.23,0a1.3,1.3,0,0,1,.39.58l3.53,7.23q1.06,2.16,2.11,4.32c.09.17.14.39.39.49a1.77,1.77,0,0,0,.08-.25c0-.21,0-.41,0-.62q0-5.48,0-10.93a1.64,1.64,0,0,1,.08-.78,1.5,1.5,0,0,1,.33-.06,9.75,9.75,0,0,1,2.55.09.44.44,0,0,1,.06.16V96.19a1.38,1.38,0,0,1-.05.25,1.49,1.49,0,0,1-.25.06c-1.21,0-2.41,0-3.58,0a1.66,1.66,0,0,1-.44-.66q-2.42-4.72-4.82-9.45c-.34-.67-.68-1.34-1-2C187.2,84.28,187.16,84.12,186.94,84.1Z"/><path class="cls-1" d="M136.08,96.49a1.92,1.92,0,0,1-.08-.37,4.13,4.13,0,0,1,0-.5c0-5.09,0-10.19,0-15.29a1.62,1.62,0,0,1,.1-.83,2.7,2.7,0,0,1,.41,0c2.41,0,4.83,0,7.24,0a7.91,7.91,0,0,1,2.21.35,5.37,5.37,0,0,1,3.64,3.24,10,10,0,0,1,.6,2.16,15.5,15.5,0,0,1-.47,7.52,6.92,6.92,0,0,1-.47,1.08,4.8,4.8,0,0,1-3.83,2.57,16.89,16.89,0,0,1-2.36.13h-6.31Zm3.18-2.92a5.19,5.19,0,0,0,.52.06c.95,0,1.91,0,2.87,0a5.89,5.89,0,0,0,1.72-.22A2.66,2.66,0,0,0,146.08,92a7,7,0,0,0,.43-1.1,10.3,10.3,0,0,0,.23-4.81,7,7,0,0,0-.67-2,2.74,2.74,0,0,0-1.77-1.47,4.61,4.61,0,0,0-1.1-.19c-1.18,0-2.37,0-3.55,0a1.67,1.67,0,0,0-.4.08C139.16,83,139.16,93,139.26,93.57Z"/><path class="cls-1" d="M269.68,79.47c1.35,0,2.67,0,4,0l.29.5q2.79,5.72,5.59,11.44a1.5,1.5,0,0,0,.45.7c0-.08.1-.15.1-.21s0-.42,0-.63c0-3.66,0-7.33,0-11a1.41,1.41,0,0,1,.09-.75,5.12,5.12,0,0,1,1.41-.06,6.53,6.53,0,0,1,1.46,0,2.46,2.46,0,0,1,.06.36,4.21,4.21,0,0,1,0,.5V95.6a2.1,2.1,0,0,1-.07.82.65.65,0,0,1-.22.08H279.3a1.35,1.35,0,0,1-.44-.64q-2.12-4.14-4.22-8.28l-1.53-3a1.1,1.1,0,0,0-.39-.52.88.88,0,0,0-.11.29c0,.23,0,.46,0,.69V95.58c0,.27,0,.54,0,.82a2.22,2.22,0,0,1-.32.1,13,13,0,0,1-2.58-.08,1.77,1.77,0,0,1-.08-.33,5.42,5.42,0,0,1,0-.57V80.41A2.14,2.14,0,0,1,269.68,79.47Z"/><path class="cls-1" d="M302.27,96.46c-.24,0-.41.05-.57.05-2.46,0-4.92,0-7.37,0a8.31,8.31,0,0,1-1.49-.18A5.17,5.17,0,0,1,289.5,94a8.22,8.22,0,0,1-1.13-3,15.64,15.64,0,0,1-.23-3.92,11.57,11.57,0,0,1,.82-3.89,7.92,7.92,0,0,1,.75-1.37,5.14,5.14,0,0,1,2.72-2,8.12,8.12,0,0,1,2.45-.41h6.81c.17,0,.33,0,.51,0a1,1,0,0,1,.08.24c0,.75,0,1.5,0,2.25,0,.3-.08.37-.38.38h-6.12a5,5,0,0,0-1.72.25,3,3,0,0,0-1.82,1.6,6.5,6.5,0,0,0-.57,2.48,13,13,0,0,0,.12,3.11c.1.51.22,1,.37,1.52A3,3,0,0,0,295,93.56a33.59,33.59,0,0,0,3.62.07l.25,0c.21,0,.3-.11.32-.31a3.24,3.24,0,0,0,0-.44V90.11a1,1,0,0,0-.12-.66,1,1,0,0,0-.61-.08h-2.93l-.59,0a.78.78,0,0,1-.2-.61,6.51,6.51,0,0,1,.12-2.22c.49-.08,6.74-.09,7.32,0a2.84,2.84,0,0,1,.08.34c0,.1,0,.2,0,.31v8.62C302.29,96,302.28,96.19,302.27,96.46Z"/><path class="cls-1" d="M39.48,88.13A11.6,11.6,0,0,1,39,92a6.71,6.71,0,0,1-.84,1.8,5.85,5.85,0,0,1-3.65,2.54,10.82,10.82,0,0,1-4,.18,9,9,0,0,1-2.74-.79,5.64,5.64,0,0,1-2.58-2.46,9.23,9.23,0,0,1-1-3.32,15,15,0,0,1-.11-2.68,12.3,12.3,0,0,1,.6-3.56c0-.12.08-.23.13-.35a5.71,5.71,0,0,1,3.93-3.63,10.85,10.85,0,0,1,4.32-.34,9.52,9.52,0,0,1,2.47.62,5.51,5.51,0,0,1,2.76,2.43,8.61,8.61,0,0,1,.95,2.7A12.91,12.91,0,0,1,39.48,88.13ZM36,88a11.36,11.36,0,0,0-.14-2.18,6.14,6.14,0,0,0-.67-2,3.17,3.17,0,0,0-2-1.54A5,5,0,0,0,31,82.12a3.42,3.42,0,0,0-2.75,2,5.72,5.72,0,0,0-.47,1.61,14.82,14.82,0,0,0,0,4.41,5.83,5.83,0,0,0,.59,1.9,3.23,3.23,0,0,0,2,1.67,4.93,4.93,0,0,0,2.64.08,3.2,3.2,0,0,0,2.2-1.7,7.25,7.25,0,0,0,.49-1.27A9.4,9.4,0,0,0,36,88Z"/><path class="cls-1" d="M212.65,96.46c0-.95,0-1.82,0-2.7a2.25,2.25,0,0,1,.4-.11,5.19,5.19,0,0,1,.56,0h5.18c.71,0,1.42,0,2.12-.06a4.58,4.58,0,0,0,.74-.13A1.76,1.76,0,0,0,223,92a2.11,2.11,0,0,0-1.87-2.59,7,7,0,0,0-1.12-.09l-3.56,0a5.75,5.75,0,0,1-1.83-.34,3.36,3.36,0,0,1-1.68-1.24,5.24,5.24,0,0,1-1-2.41,6,6,0,0,1,.66-3.68,3.73,3.73,0,0,1,2.73-2,7.61,7.61,0,0,1,1.43-.13c2.74,0,5.49,0,8.24,0l.58,0a2.07,2.07,0,0,1,.08.37,9.93,9.93,0,0,1-.08,2.42,1,1,0,0,1-.66.09h-5.12c-.73,0-1.46,0-2.19,0a6.69,6.69,0,0,0-1,.12,1.33,1.33,0,0,0-1.07.93,2.69,2.69,0,0,0,0,1.66,1.5,1.5,0,0,0,.88,1,3.09,3.09,0,0,0,.77.23c.52.06,1,.09,1.56.1,1.16,0,2.33,0,3.5,0a4.78,4.78,0,0,1,2.26.63,3.45,3.45,0,0,1,1.53,1.67,6.91,6.91,0,0,1,.25,4.7,4.6,4.6,0,0,1-.73,1.45,3.6,3.6,0,0,1-2.44,1.48,10.39,10.39,0,0,1-1.36.11c-2.83,0-5.66,0-8.49,0C213.09,96.51,212.91,96.48,212.65,96.46Z"/><path class="cls-1" d="M252.3,96.44a29,29,0,0,1-3.31.07,2.47,2.47,0,0,1-.29-.06c-.12-.25,0-.43.1-.61.47-1.27,1-2.53,1.44-3.8q2.23-5.91,4.49-11.84l.28-.69a5.39,5.39,0,0,1,1.26-.07h2.38a1.38,1.38,0,0,1,.39.7q1.69,4.45,3.38,8.92L265,95.77c.07.2.13.39.21.63a2.36,2.36,0,0,1-.36.11c-1,0-2,0-2.94,0a.51.51,0,0,1-.54-.4c-.36-.94-.73-1.87-1.09-2.8-.05-.13-.11-.27-.15-.4a.52.52,0,0,0-.58-.38h-4.74c-.15,0-.3,0-.44,0a.63.63,0,0,0-.69.49c-.35.94-.72,1.86-1.08,2.79C252.49,96,252.39,96.22,252.3,96.44Zm4.58-12.87a1.47,1.47,0,0,0-.21.36c-.66,1.72-1.3,3.45-2,5.18a3.06,3.06,0,0,0-.07.4.84.84,0,0,0,.57.14h3.37c.2,0,.42,0,.59-.19,0-.14-.08-.3-.13-.45l-.3-.82c-.51-1.34-1-2.69-1.51-4C257.16,84,257.14,83.71,256.88,83.57Z"/><path class="cls-1" d="M179.42,96.43a23.59,23.59,0,0,1-3.67,0c-.07-.16-.16-.34-.23-.53-.35-.89-.69-1.79-1-2.68-.06-.16-.13-.31-.19-.46a.41.41,0,0,0-.34-.24H168.7c-.59,0-.62,0-.83.56l-1.05,2.74c-.08.21-.18.42-.26.61a21.12,21.12,0,0,1-3.65,0c-.08-.24.07-.44.15-.64.57-1.54,1.16-3.08,1.74-4.61q2.1-5.52,4.19-11c.09-.23.19-.45.28-.65a28.64,28.64,0,0,1,3.66,0c.23.15.26.41.35.64q1.2,3.15,2.39,6.3,1.74,4.57,3.47,9.16A4.13,4.13,0,0,1,179.42,96.43Zm-8.28-12.91c-.09.16-.16.26-.21.37a56.91,56.91,0,0,0-2,5.63c.07,0,.14.1.21.1h4a1.15,1.15,0,0,0,.31-.09,3,3,0,0,0-.06-.38A53.64,53.64,0,0,0,171.14,83.52Z"/><path class="cls-1" d="M244.18,96.44a16.4,16.4,0,0,1-3,0,2.23,2.23,0,0,1-.09-.39c0-.29,0-.58,0-.87V90.38c0-.17,0-.34,0-.5,0-.42-.09-.5-.53-.5h-5.25a3,3,0,0,0-.42.06,1.22,1.22,0,0,0-.1.69v5.56c0,.23,0,.46,0,.71a1.4,1.4,0,0,1-.36.1H232l-.27-.05a2.25,2.25,0,0,1-.09-.35,5.19,5.19,0,0,1,0-.56V80.37c0-.27,0-.54,0-.82a1.28,1.28,0,0,1,.32-.1h2.56a.61.61,0,0,1,.18,0c.17.2.1.44.1.66,0,1.73,0,3.46,0,5.19,0,.21,0,.42,0,.62s0,.25,0,.4a1.59,1.59,0,0,0,.35.08h5.5a1.86,1.86,0,0,0,.28,0,1.9,1.9,0,0,0,.11-.39,3.54,3.54,0,0,0,0-.56V80.27a1.66,1.66,0,0,1,.09-.78,7.21,7.21,0,0,1,1.47,0c.5,0,1,0,1.5,0a2,2,0,0,1,.1.33,4.13,4.13,0,0,1,0,.5V95.66A1.31,1.31,0,0,1,244.18,96.44Z"/><path class="cls-1" d="M101.33,79.46a1.24,1.24,0,0,1,.12.75v6.18c0,1.1,0,2.21,0,3.31a13.14,13.14,0,0,1-.23,2.42c0,.24-.1.49-.17.73a4.68,4.68,0,0,1-2.54,3,7.6,7.6,0,0,1-3,.76c-.62,0-1.25,0-1.87,0a7.41,7.41,0,0,1-2.55-.54,4.89,4.89,0,0,1-3.17-4.21,20.74,20.74,0,0,1-.13-2.61q0-4.5,0-9a1.87,1.87,0,0,1,0-.71c.07,0,.1-.08.14-.08l2.3,0,.58,0a2,2,0,0,1,.09.37,5.19,5.19,0,0,1,0,.56v9.3a8.71,8.71,0,0,0,.12,1.62,2.9,2.9,0,0,0,1.7,2.24,4.52,4.52,0,0,0,3.93-.06,2.5,2.5,0,0,0,1.44-2.19c.06-.7.1-1.41.1-2.12,0-3,0-6,0-8.93a1.63,1.63,0,0,1,.09-.77,9,9,0,0,1,1.47,0C100.33,79.44,100.83,79.43,101.33,79.46Z"/><path class="cls-1" d="M44.29,79.54a12.21,12.21,0,0,1,3,0,1.21,1.21,0,0,1,.07.33c0,.21,0,.42,0,.63,0,2.91,0,5.83,0,8.74A15.67,15.67,0,0,0,47.49,91a3,3,0,0,0,2.11,2.67,4.58,4.58,0,0,0,3.3-.09,2.53,2.53,0,0,0,1.67-2.15,11.54,11.54,0,0,0,.11-1.55V80.3c0-.25,0-.49,0-.76a1.65,1.65,0,0,1,.39-.09q1.19,0,2.37,0a2.26,2.26,0,0,1,.33,0,2.61,2.61,0,0,1,.08.36c0,.27,0,.54,0,.81v8.93a13.26,13.26,0,0,1-.23,2.67,4.94,4.94,0,0,1-3.62,4,7.89,7.89,0,0,1-2.27.39,12.1,12.1,0,0,1-3.34-.26,5.29,5.29,0,0,1-3.17-2.08,4.54,4.54,0,0,1-.76-1.76,9.44,9.44,0,0,1-.17-1.3c0-.68,0-1.37,0-2.06,0-2.93,0-5.87,0-8.8C44.26,80.1,44.28,79.83,44.29,79.54Z"/><path class="cls-1" d="M259.63,42.86h-10.1c-.13-.18,0-.28.09-.39l2.65-3.63,3.21-4.38a2.1,2.1,0,0,0,.22-.3.71.71,0,0,1,.73-.37h8.87a1.08,1.08,0,0,1,.61.07c0,.21-.13.34-.24.49-1,1.43-2,2.85-3,4.28-.86,1.2-1.71,2.41-2.56,3.61Z"/><path class="cls-1" d="M273.28,33.84a5.07,5.07,0,0,1,.54-.05h9.3a.55.55,0,0,1,.43.22c.09.12.18.23.26.35l5.83,8,.29.45c-.11.16-.25.11-.36.11-3.06,0-6.12,0-9.18,0a.91.91,0,0,1-.82-.43C277.8,40,276,37.62,274.26,35.2Z"/><path class="cls-1" d="M12.93,86.08c.25-.08.3-.3.4-.47.58-1,1.15-2,1.72-3,.48-.85,1-1.7,1.45-2.55.1-.18.21-.36.31-.51a29,29,0,0,1,3.64,0c.12.16,0,.27-.09.38C19.67,81,19,82.08,18.27,83.19,17.14,85,16,86.83,14.85,88.64a2.16,2.16,0,0,0-.34,1.23c0,1.93,0,3.87,0,5.8a1.6,1.6,0,0,1-.09.77,2.61,2.61,0,0,1-1,.07H12.39a3.4,3.4,0,0,1-1-.05,1.11,1.11,0,0,1-.1-.7c0-1.9,0-3.79,0-5.68a4.13,4.13,0,0,1,0-.5,1.67,1.67,0,0,0-.3-1.06L6,80.14a1.55,1.55,0,0,1-.29-.59l0-.07.06,0,2.87,0h.59c.13.23.27.43.39.65l2.92,5.44A1.43,1.43,0,0,0,12.93,86.08Z"/><path class="cls-1" d="M79.29,79.52a13.17,13.17,0,0,1,3,0c0,.13,0,.27.06.4,0,.42,0,.84,0,1.25,0,3.21,0,6.41,0,9.62a7.1,7.1,0,0,1-.62,2.9A4.53,4.53,0,0,1,78,96.39a17.54,17.54,0,0,1-2.17.12H72.39a1,1,0,0,1-.63-.1.89.89,0,0,1-.06-.21q0-1.12,0-2.25a.54.54,0,0,1,.08-.21,1.4,1.4,0,0,1,.75-.1l3.81-.07a7.21,7.21,0,0,0,.92-.11A2.05,2.05,0,0,0,78.9,92a5.36,5.36,0,0,0,.27-1.54c0-.58,0-1.16,0-1.74V80.24C79.19,80,79.12,79.74,79.29,79.52Z"/><path class="cls-1" d="M155.39,79.54a13.25,13.25,0,0,1,3.08,0,1.29,1.29,0,0,1,.08.28c0,.17,0,.34,0,.5,0,5.12,0,10.24,0,15.36a1.39,1.39,0,0,1-.09.78,13.25,13.25,0,0,1-3,0,3.2,3.2,0,0,1-.07-.33,4.21,4.21,0,0,1,0-.5V80.36C155.36,80.09,155.38,79.82,155.39,79.54Z"/></svg>