<svg id="图层_1" data-name="图层 1" xmlns="http://www.w3.org/2000/svg" xmlns:xlink="http://www.w3.org/1999/xlink" viewBox="0 0 169 169"><defs><style>.cls-1{fill:url(#未命名的渐变_40);}.cls-2{fill:url(#未命名的渐变_18);}.cls-3{fill:url(#未命名的渐变_48);}</style><radialGradient id="未命名的渐变_40" cx="74.72" cy="57.94" r="212.51" gradientTransform="translate(-4.05 -2.43)" gradientUnits="userSpaceOnUse"><stop offset="0" stop-color="#129fe6"/><stop offset="0.14" stop-color="#1087d1"/><stop offset="0.39" stop-color="#0d53a4"/><stop offset="0.88" stop-color="#0c52a3"/></radialGradient><linearGradient id="未命名的渐变_18" x1="86.28" y1="119.91" x2="87.43" y2="207.17" gradientUnits="userSpaceOnUse"><stop offset="0" stop-color="#ef9a08"/><stop offset="0.25" stop-color="#f4b90c"/><stop offset="0.46" stop-color="#f8cd0f"/><stop offset="0.62" stop-color="#f6c911"/><stop offset="0.78" stop-color="#f0be18"/><stop offset="0.93" stop-color="#e5ac24"/><stop offset="1" stop-color="#dea02c"/></linearGradient><radialGradient id="未命名的渐变_48" cx="155.67" cy="75.42" r="42.89" gradientTransform="translate(-4.05 -2.43)" gradientUnits="userSpaceOnUse"><stop offset="0" stop-color="#feeb00"/><stop offset="0.11" stop-color="#fbd302"/><stop offset="0.26" stop-color="#f5ab05"/><stop offset="0.64" stop-color="#f4a002"/><stop offset="0.84" stop-color="#f39800"/></radialGradient></defs><title>优君电商</title><path class="cls-1" d="M25.58,56.42a109.75,109.75,0,0,1,51.29,4L83,38.05l40,.19s1.72,5.94-15.7,36-37.69,39.8-57.41,39-27.36-8-27.36-8c39.8-1.53,49.56-33.11,49.56-33.11-15.11-8-43,.39-43,.39s-36.36,16.07-8.81,36.74S83,117.66,83,117.66c47.3-21.94,60.83-77.94,63.15-89.4A83.43,83.43,0,0,0,1.34,73.34C6.16,65.55,13.74,58.33,25.58,56.42Z"/><path class="cls-2" d="M136,124.55C112.46,142,89.69,145.41,89.69,145.41c-55.25,7.14-81.13-29.36-85.31-35.93a83.61,83.61,0,0,0,79.76,58.89c45.13,0,81.89-35.94,83.47-80.88C160,99.66,148.76,115.11,136,124.55Z"/><circle class="cls-3" cx="151.6" cy="73.93" r="13.4"/></svg>