<svg id="图层_1" data-name="图层 1" xmlns="http://www.w3.org/2000/svg" viewBox="0 0 171 171"><defs><style>.cls-1{fill:#fff;}</style></defs><title>优君电商透明</title><path class="cls-1" d="M26.58,57.42a109.75,109.75,0,0,1,51.29,4L84,39.05l40,.19s1.72,5.94-15.7,36-37.69,39.8-57.41,39-27.36-8-27.36-8c39.8-1.53,49.56-33.11,49.56-33.11-15.11-8-43,.39-43,.39s-36.36,16.07-8.81,36.74S84,118.66,84,118.66c47.3-21.94,60.83-77.94,63.15-89.4A83.43,83.43,0,0,0,2.34,74.34C7.16,66.55,14.74,59.33,26.58,57.42Z"/><path class="cls-1" d="M137,125.55C113.46,143,90.69,146.41,90.69,146.41c-55.25,7.14-81.13-29.36-85.31-35.93a83.61,83.61,0,0,0,79.76,58.89c45.13,0,81.89-35.94,83.47-80.88C161,100.66,149.76,116.11,137,125.55Z"/><circle class="cls-1" cx="152.6" cy="74.93" r="13.4"/></svg>